<svg id="svg" version="1.1" xmlns="http://www.w3.org/2000/svg" xmlns:xlink="http://www.w3.org/1999/xlink" width="400" height="134.94949494949495" viewBox="0, 0, 400,134.94949494949495"><g id="svgg"><path id="path0" d="M10.505 0.628 C 9.180 1.084,8.988 1.321,6.110 6.061 C -0.113 16.307,-1.189 19.614,1.414 20.488 C 2.192 20.750,3.547 21.428,4.425 21.997 C 9.562 25.322,14.669 28.283,15.270 28.283 C 15.652 28.283,16.424 28.837,16.986 29.514 C 17.548 30.192,18.199 30.555,18.433 30.321 C 18.667 30.087,19.434 30.401,20.136 31.019 C 20.839 31.637,23.232 33.118,25.455 34.310 C 27.677 35.502,30.586 37.153,31.919 37.980 C 33.253 38.806,36.162 40.458,38.384 41.650 C 40.606 42.842,43.061 44.378,43.838 45.064 C 44.616 45.750,45.253 46.010,45.253 45.641 C 45.253 45.272,46.162 45.825,47.273 46.869 C 48.384 47.913,49.293 48.465,49.293 48.096 C 49.293 47.728,49.929 47.987,50.707 48.673 C 51.485 49.359,54.049 50.961,56.406 52.233 C 58.762 53.505,61.308 54.914,62.062 55.364 C 62.817 55.815,65.886 57.571,68.882 59.268 C 71.878 60.965,74.539 62.693,74.796 63.109 C 75.053 63.525,75.560 63.681,75.924 63.456 C 76.287 63.232,77.034 63.590,77.583 64.251 C 78.132 64.913,78.894 65.455,79.275 65.455 C 79.657 65.455,81.894 66.636,84.246 68.081 C 91.153 72.321,91.529 72.540,95.758 74.795 C 97.980 75.979,100.434 77.510,101.212 78.195 C 101.990 78.881,102.626 79.141,102.626 78.772 C 102.626 78.404,103.535 78.956,104.646 80.000 C 105.758 81.044,106.667 81.596,106.667 81.228 C 106.667 80.859,107.303 81.105,108.081 81.775 C 108.859 82.444,111.131 83.853,113.131 84.905 C 115.131 85.957,117.404 87.340,118.182 87.978 C 118.960 88.617,119.596 88.838,119.596 88.469 C 119.596 88.101,120.414 88.511,121.414 89.382 C 122.414 90.252,124.869 91.824,126.869 92.875 C 128.869 93.926,131.080 95.278,131.783 95.879 C 132.485 96.481,133.252 96.782,133.486 96.548 C 133.720 96.314,134.371 96.677,134.933 97.354 C 135.495 98.032,136.268 98.586,136.649 98.586 C 137.030 98.586,139.267 99.768,141.620 101.212 C 148.477 105.422,148.892 105.664,153.095 107.930 C 155.297 109.116,158.387 110.901,159.963 111.896 C 161.539 112.891,163.063 113.667,163.350 113.620 C 163.636 113.573,164.545 114.081,165.370 114.747 C 166.194 115.414,167.596 116.357,168.485 116.844 C 172.741 119.171,174.251 120.088,175.556 121.135 C 176.333 121.760,176.970 121.969,176.970 121.601 C 176.970 121.232,177.788 121.643,178.788 122.513 C 179.788 123.383,182.242 124.955,184.242 126.006 C 186.242 127.057,188.454 128.409,189.156 129.011 C 189.859 129.612,190.626 129.913,190.860 129.679 C 191.093 129.445,191.745 129.808,192.307 130.486 C 192.869 131.163,193.663 131.717,194.071 131.717 C 194.479 131.717,195.849 132.483,197.115 133.420 L 199.418 135.122 203.329 132.813 C 209.265 129.310,209.699 129.062,214.264 126.572 C 216.601 125.298,219.802 123.442,221.377 122.447 C 222.953 121.453,224.477 120.677,224.764 120.723 C 225.050 120.770,225.959 120.263,226.784 119.596 C 227.608 118.929,229.101 117.929,230.101 117.374 C 231.101 116.818,232.737 115.909,233.737 115.354 C 234.737 114.798,236.192 113.833,236.970 113.208 C 237.747 112.584,238.384 112.374,238.384 112.743 C 238.384 113.111,239.202 112.701,240.202 111.831 C 241.202 110.960,243.657 109.388,245.657 108.337 C 247.657 107.286,249.929 105.879,250.707 105.209 C 251.485 104.540,252.121 104.286,252.121 104.646 C 252.121 105.006,252.758 104.754,253.535 104.086 C 254.313 103.418,255.495 102.632,256.162 102.340 C 256.828 102.047,258.828 100.893,260.606 99.775 C 262.384 98.658,264.384 97.514,265.051 97.234 C 265.717 96.953,266.899 96.178,267.677 95.510 C 268.455 94.842,269.091 94.522,269.091 94.800 C 269.091 95.078,270.317 94.498,271.815 93.511 C 275.778 90.901,281.490 87.588,282.424 87.357 C 282.869 87.247,283.778 86.729,284.444 86.205 C 285.111 85.681,286.475 84.798,287.475 84.242 C 288.475 83.687,290.111 82.778,291.111 82.222 C 292.111 81.667,293.566 80.701,294.343 80.077 C 295.121 79.452,295.758 79.243,295.758 79.612 C 295.758 79.980,296.667 79.428,297.778 78.384 C 298.889 77.340,299.798 76.788,299.798 77.156 C 299.798 77.525,300.434 77.278,301.212 76.609 C 301.990 75.939,304.263 74.532,306.263 73.481 C 308.263 72.430,310.717 70.858,311.717 69.988 C 312.717 69.117,313.535 68.707,313.535 69.075 C 313.535 69.444,314.172 69.235,314.949 68.610 C 315.727 67.986,317.182 67.020,318.182 66.465 C 319.182 65.909,320.818 65.000,321.818 64.444 C 322.818 63.889,324.311 62.889,325.135 62.222 C 325.960 61.556,326.687 61.147,326.752 61.314 C 326.876 61.637,332.921 58.177,337.478 55.176 C 338.976 54.189,340.202 53.609,340.202 53.887 C 340.202 54.165,340.838 53.869,341.616 53.231 C 342.394 52.592,344.667 51.209,346.667 50.157 C 348.667 49.105,350.877 47.753,351.579 47.153 C 352.280 46.552,353.236 46.061,353.702 46.061 C 354.168 46.061,355.010 45.506,355.572 44.829 C 356.134 44.152,356.785 43.789,357.019 44.023 C 357.253 44.257,358.020 43.956,358.722 43.354 C 359.425 42.753,361.636 41.400,363.636 40.350 C 365.636 39.299,368.091 37.727,369.091 36.856 C 370.091 35.986,370.909 35.575,370.909 35.944 C 370.909 36.313,371.545 36.103,372.323 35.479 C 373.101 34.854,374.465 33.946,375.354 33.459 C 379.610 31.132,381.119 30.215,382.424 29.168 C 383.202 28.543,383.838 28.334,383.838 28.702 C 383.838 29.071,384.747 28.519,385.859 27.475 C 386.970 26.431,387.879 25.878,387.879 26.247 C 387.879 26.616,388.515 26.356,389.293 25.670 C 390.071 24.984,392.707 23.409,395.152 22.170 C 397.596 20.931,399.722 19.825,399.876 19.712 C 400.030 19.600,399.121 17.931,397.856 16.003 C 394.629 11.087,393.845 9.771,391.774 5.793 C 388.997 0.462,383.219 0.480,379.717 5.831 C 379.450 6.239,378.669 6.655,377.980 6.756 C 377.292 6.857,376.147 7.423,375.435 8.013 C 374.724 8.604,374.141 8.830,374.141 8.516 C 374.141 8.202,372.611 9.157,370.740 10.639 C 368.869 12.121,367.142 13.289,366.901 13.234 C 365.975 13.024,363.965 14.047,362.222 15.615 C 361.222 16.515,360.404 16.925,360.404 16.527 C 360.404 16.128,359.834 16.616,359.137 17.611 C 358.440 18.607,357.556 19.227,357.172 18.990 C 356.789 18.753,356.261 18.906,355.999 19.330 C 355.738 19.753,354.349 20.714,352.913 21.464 C 349.629 23.180,346.933 24.723,343.838 26.655 C 342.505 27.488,339.596 29.145,337.374 30.337 C 335.152 31.529,332.697 33.065,331.919 33.751 C 331.141 34.437,330.505 34.696,330.505 34.328 C 330.505 33.959,329.596 34.512,328.485 35.556 C 327.374 36.599,326.465 37.152,326.465 36.783 C 326.465 36.415,325.828 36.624,325.051 37.248 C 324.273 37.873,322.818 38.838,321.818 39.394 C 320.818 39.949,319.182 40.859,318.182 41.414 C 317.182 41.970,315.727 42.935,314.949 43.560 C 314.172 44.184,313.535 44.393,313.535 44.025 C 313.535 43.656,312.717 44.067,311.717 44.937 C 310.717 45.807,308.263 47.379,306.263 48.430 C 304.263 49.481,302.051 50.833,301.349 51.435 C 300.646 52.037,299.879 52.337,299.646 52.103 C 299.412 51.870,298.760 52.232,298.198 52.910 C 297.636 53.587,296.864 54.141,296.482 54.141 C 296.101 54.141,293.799 55.414,291.368 56.970 C 288.936 58.525,286.610 59.798,286.198 59.798 C 285.787 59.798,284.990 60.352,284.428 61.030 C 283.866 61.707,283.215 62.070,282.981 61.836 C 282.747 61.602,281.980 61.903,281.278 62.504 C 280.575 63.106,278.364 64.458,276.364 65.509 C 274.364 66.560,271.909 68.132,270.909 69.002 C 269.909 69.873,269.091 70.283,269.091 69.915 C 269.091 69.546,268.455 69.755,267.677 70.380 C 266.899 71.004,265.444 71.970,264.444 72.525 C 263.444 73.081,261.808 73.990,260.808 74.545 C 259.808 75.101,258.354 76.066,257.576 76.691 C 256.798 77.315,256.162 77.525,256.162 77.156 C 256.162 76.788,255.343 77.198,254.343 78.068 C 253.343 78.939,250.889 80.511,248.889 81.562 C 246.889 82.613,244.678 83.965,243.975 84.566 C 243.272 85.168,242.506 85.469,242.272 85.235 C 242.038 85.001,241.386 85.364,240.824 86.041 C 240.262 86.718,239.466 87.273,239.054 87.273 C 238.643 87.273,236.317 88.545,233.885 90.101 C 231.453 91.657,229.152 92.929,228.770 92.929 C 228.389 92.929,227.627 93.471,227.078 94.133 C 226.529 94.794,225.782 95.152,225.419 94.927 C 225.055 94.703,224.548 94.859,224.291 95.275 C 224.034 95.690,221.373 97.419,218.377 99.116 C 215.381 100.813,212.202 102.646,211.313 103.190 C 210.424 103.734,209.152 104.445,208.485 104.771 C 207.818 105.096,205.663 106.378,203.696 107.620 L 200.120 109.878 196.828 108.003 C 195.017 106.972,192.081 105.299,190.303 104.285 C 188.525 103.271,185.434 101.513,183.434 100.377 C 181.434 99.242,179.162 97.772,178.384 97.112 C 177.606 96.451,176.970 96.206,176.970 96.566 C 176.970 96.926,176.333 96.698,175.556 96.059 C 174.778 95.421,172.505 94.038,170.505 92.986 C 168.505 91.934,166.232 90.525,165.455 89.856 C 164.677 89.186,164.040 88.940,164.040 89.309 C 164.040 89.677,163.131 89.125,162.020 88.081 C 160.909 87.037,160.000 86.484,160.000 86.853 C 160.000 87.222,159.364 86.962,158.586 86.276 C 157.808 85.590,155.354 84.054,153.131 82.862 C 150.909 81.670,148.000 80.013,146.667 79.181 C 145.333 78.348,143.333 77.167,142.222 76.558 C 137.881 74.175,136.104 73.084,134.663 71.919 C 133.838 71.253,133.111 70.860,133.046 71.047 C 132.982 71.234,131.458 70.458,129.660 69.323 C 127.862 68.188,124.590 66.278,122.388 65.080 C 113.108 60.028,109.042 57.648,108.125 56.731 C 107.590 56.196,106.723 55.758,106.200 55.758 C 105.677 55.758,104.788 55.203,104.226 54.526 C 103.664 53.849,103.013 53.486,102.779 53.720 C 102.545 53.954,101.778 53.653,101.076 53.051 C 100.373 52.450,98.162 51.097,96.162 50.047 C 94.162 48.996,91.707 47.424,90.707 46.553 C 89.707 45.683,88.889 45.272,88.889 45.641 C 88.889 46.010,88.253 45.789,87.475 45.150 C 86.697 44.512,84.424 43.128,82.424 42.077 C 80.424 41.025,78.213 39.672,77.510 39.070 C 76.807 38.468,76.041 38.168,75.807 38.402 C 75.573 38.636,74.922 38.273,74.360 37.595 C 73.797 36.918,72.956 36.364,72.490 36.364 C 72.024 36.364,71.068 35.859,70.367 35.242 C 69.665 34.625,67.273 33.141,65.051 31.944 C 56.420 27.297,51.686 24.534,50.751 23.600 C 50.216 23.064,49.350 22.626,48.826 22.626 C 48.303 22.626,47.415 22.072,46.852 21.395 C 46.290 20.717,45.649 20.344,45.428 20.565 C 45.207 20.786,43.714 19.942,42.109 18.689 C 40.505 17.437,37.374 15.385,35.152 14.130 C 32.929 12.875,30.475 11.307,29.697 10.647 C 28.919 9.987,28.283 9.741,28.283 10.101 C 28.283 10.461,27.646 10.209,26.869 9.541 C 26.091 8.873,24.909 8.097,24.242 7.817 C 23.576 7.536,21.576 6.393,19.798 5.275 C 18.020 4.158,16.020 3.004,15.354 2.711 C 14.687 2.418,13.596 1.736,12.929 1.195 C 12.263 0.654,11.172 0.399,10.505 0.628 " stroke="none" fill="#000000" fill-rule="evenodd"></path></g></svg>