<?xml version="1.0" encoding="utf-8"?>
<!-- Generator: Adobe Illustrator 23.0.1, SVG Export Plug-In . SVG Version: 6.00 Build 0)  -->
<svg version="1.1" id="Calque_1" xmlns="http://www.w3.org/2000/svg" xmlns:xlink="http://www.w3.org/1999/xlink" x="0px" y="0px"
	 viewBox="0 0 841.9 595.3" style="enable-background:new 0 0 841.9 595.3;" xml:space="preserve">
<style type="text/css">
	.st0{fill:#1E1E1E;}
	.st1{fill:#565656;}
	.st2{fill:#272727;}
	.st3{fill:#252525;}
	.st4{fill:#3F3F3F;}
	.st5{fill:#5C5C5C;}
	.st6{fill:#232323;}
	.st7{fill:#464646;}
	.st8{fill:#3E3E3E;}
	.st9{fill:#383838;}
	.st10{fill:#292929;}
	.st11{fill:#3A3A3A;}
	.st12{fill:#393939;}
	.st13{fill:#4B4B4B;}
	.st14{fill:#FEFEFE;}
	.st15{fill:#FDFDFD;}
	.st16{fill:#FCFCFC;}
	.st17{fill:#2A2A2A;}
	.st18{fill:#F7F7F7;}
	.st19{fill:#CDCDCD;}
	.st20{fill:#808080;}
	.st21{fill:#D8D8D8;}
	.st22{fill:#D2D2D2;}
	.st23{fill:#959595;}
	.st24{fill:#A8A8A8;}
	.st25{fill:#222222;}
	.st26{fill:#212121;}
	.st27{fill:#5E5E5E;}
	.st28{fill:#E3E3E3;}
</style>
<g>
	<path class="st0" d="M248,230.3c1-5.1,4.1-9,8.1-12c5.4-4.1,11.5-6.9,17.9-9c0.4-0.8,1.4-0.4,2-0.8c10.5-4.3,21.4-6.2,32.8-7.1
		c6.8-0.5,14-1.8,20.1,0.8c10.1,4.3,17.9-0.4,26.4-3.8c3.8-1.5,7.3-3.9,11.6-4.4c1.4-0.1,3.5-1.1,3.8-2c1.5-5.5,5.7-4.2,9.3-4
		c1.8,0.1,2.5,0.2,3.8-1.7c2.2-3.4,6.1-5,9.8-6.4c3.3-1.2,6.7-1.9,10.1-2.7c3.4-0.8,6.9-1.2,8.4,3c1.4,3.8,1.2,7.6-2.3,10.4
		c-3.3,2.6-7,4.5-11.1,5.3c-2.5,0.5-3.8,1.4-4.2,4.4c-0.7,5.3-0.4,11.1-5,15.2c-1.2,1.1-0.7,2.6,0.2,4.1
		c6.1,10.1,12.6,19.8,19.7,29.3c6,8,12.9,15.6,17.5,24.7c3.4,6.7,10.7,6.6,14.4-0.1c4.1-7.4,5.6-15.5,7-23.7
		c0.8-4.6,1.2-9.2,2.9-13.6c-0.1-4.2,0.7-8.5,0.5-12.7c1.8-18.4,9.7-32.9,26.6-41.7c4-2.1,8.4-1.9,12.7-1.9c1.6,0,3.5,0.3,4.8-0.9
		c1.3-1.3,1.4-3,0.9-4.7c-0.7-2.1-2.7-1.6-4.3-1.7c-13-0.9-22.1-11-21.8-24.2c0.6-1,1.4-1.6,2.6-1.3c2.5,2.6,3.4,6.1,4.9,9.2
		c2.8,5.7,7.2,8.2,13.4,8.8c7.2,0.7,13.8-0.4,20.3-3.3c6.1-2.7,12.6-4.2,18.9-6.3c1.7,0.2,3.6,0.3,1.3,2.6
		c-5.4,4.1-12.6,4.6-18.3,8.7c4.9,3.3,3,8.3,2.9,12.6c-0.2,4.7,1.5,6.8,6,7.1c5.2,0.3,8.3,3.9,11,7.7c5,7.2,9.8,14.6,16,20.9
		c6.5,6.7,13.9,11.9,21.7,17c10.5,7,22.3,13.6,23.9,28.4c0.1,0.6,0.6,1.1,1,1.7c0,4.7,0,9.3,0,14c-1.4,1-1,2.7-1.4,4.1
		c-3.2,10.1-9.3,17.5-18.5,23c-9.2,5.4-19.5,9.2-27.7,16.4c-0.5,0.4-1.2,0.9-1.8,0.9c-7.7-1-5.8,4.6-6.2,8.7
		c-1.1,14.7,4.2,28.5,5.4,42.9c2.1,24.2,8.5,47.7,11.3,71.8c0.4,1.1,0.8,2.5-0.4,3.1c-1.1,0.5-1.6-0.8-2-1.7
		c-0.3-0.8-0.8-1.4-1.1-2.2c-2.9-13.3-5.1-26.8-8.6-40c-4.9-18.2-6.2-37.1-11-55.3c-1.3-5.2-0.6-10.6-0.4-15.9
		c0.2-3.6-1-5.2-4.7-5.2c-14,0.1-28,0.1-42,0c-4.3,0-6.3,2.1-6.2,6c0.5,13.6-2.6,27.2-0.4,40.9c1,5.8-0.8,11.6-0.8,17.4
		c0.1,43,0,86,0,129c0,1.7-0.1,3.4,0.2,5c1.3,7.5,1.2,14.9-1.1,22.3c-1.2,3.7,0.2,5.7,3.9,6.4c4.6,0.9,9.1,2,13.7,2.7
		c5.1,0.7,7.6-0.7,9.3-5.5c2.8-8.2,4.9-16.6,5-25.4c0.1-11.7,0.9-23.4,0.6-34.9c-0.7-28,0.3-56-1.5-83.9c-0.2-3-0.3-6,0.1-9
		c0.4-2.3,1.4-4.2,4.1-4.2c2.4-0.1,3.6,1.6,4.1,3.7c0.8,3.2,1.4,6.5,1.5,9.9c0.2,15.6,4.2,30.6,7.5,45.8c2,9.3,3.3,18.8,2.4,28.3
		c-0.9,10.1-0.6,19.9,1.1,29.8c1.7,10.4,1,20.9,1.1,31.4c0.1,6.6,1.3,8.1,8,9c6.6,0.9,13.3,0.2,20,0.7c3.9,0.3,4.1-3.2,3.8-5.7
		c-0.7-6.3-0.5-12.7-1.2-18.9c-0.4-3.2-0.7-6.3-0.6-9.5c0.5-7.1-1-13.9-2.2-20.8c-0.2-0.5-0.3-1.1-0.3-1.7c0.4-3.9,0.8-7.8-0.1-11.7
		c-0.3-1.7-0.7-4.1,2.2-4.5c0.2,2-0.8,4.1,1,5.8c1.1,3.3-0.5,6.9,0.9,10.2c3.4,12.1,3.5,24.6,4.6,37c0.6,6.9,2.7,13.7,2.3,20.8
		c-0.2,2.5,0.1,5.1-2.8,6.4c-1,0.5-1.4,1.4-1.3,2.5c0.7,5.3-1.6,10.1-2.2,15.2c-1.3,9.5-7.2,13.3-16.5,11.4
		c-7.2-1.5-13.8-4.4-20.6-7c-4.4-1.6-5.7-6-4.8-12.8c0.5-4.1,2.8-6.1,6.9-6.4c2.1-0.2,4.2-0.7,6.3-1.2c1.4-0.3,2.8-0.8,4.7-1.4
		c-3.2-2.3-6.9-1.6-9.9-3.2c-4.3-2.2-6.2-5.1-6-9.8c0.3-7.5,0.3-15,0.5-22.4c0.2-7.3-0.7-14.6-1.5-21.8c-1-9.3,0-18.6,0.2-27.9
		c0.2-5.7,0.1-11.4-1.2-16.8c-2.4-9.7-2.4-19.8-4.6-29.5c-0.5-0.5-0.9-1-0.9-1.7c-0.4,0.3-0.3,0.8-0.3,1.1c-0.8,6-0.2,11.9-0.4,17.9
		c-0.1,2,0.3,4-0.3,5.9c0.2,19.3-0.5,38.6,0.2,57.9c0.6,16.1,1.4,32.3-4.5,47.8c-1,2.6-1.3,5.6-4.6,6.6c-2.3,0.7-1.5,2.7-1.5,4.2
		c-0.1,5.7-0.3,11.3-3,16.5c-1.5,3-3.6,5.1-6.9,4.5c-8.3-1.4-16.6,0.2-24.9,0.2c-3.2,0-6.3-0.7-9.3-1.5c-5.1-1.4-7.4-5-7.4-10.5
		c0.1-4.5,2.2-8.3,4.4-12c1.6-2.5,4.3-3.1,7.1-2.6c3.9,0.7,7.8,1.4,11.6,2.4c2.2,0.6,3.3,0.3,3.9-2.1c0.7-2.8-0.7-2.9-2.8-3.3
		c-8.6-1.7-8.9-1.9-6.4-10.4c3.5-11.4,3.1-23,3.2-34.6c0.2-22-0.2-43.9,0.1-65.9c0.3-20.8,0.2-41.6-0.3-62.4
		c-0.4-15.2-0.2-30.3-0.1-45.5c0-2.8,0.5-5.6,1-8.4c1.6-9.9-1.2-19.6-0.9-29.5c0.5-17,0.9-33.9,2.8-50.8c0.9-8,0.2-16.2,0.2-24.5
		c-1.6-0.1-1.7,2.1-2.4,3.3c-6.8,13.5-12.1,27.6-16.1,42.2c-1.8,6.6-4,12.8-8.5,18.3c-8.3,10-17.2,12.2-28.5,5.8
		c-5-2.9-10-5.9-15-8.8c-5.8-3.3-10.2-8.2-13.4-13.8c-7.1-12.5-15.7-24.4-18.3-38.9c-1.5-8.6-5.7-15.6-9.4-23
		c-0.3-0.7-0.5-1.8-1.5-1.8c-4-0.2-7.8,1.1-11.7,1.8c-5,0.9-6.2,3.8-6.8,8.3c-0.5,4.2-2,8.4-3.2,12.5c-2.4,8.1-8.4,11.5-16.2,13.6
		c-23.5,6.4-47.4,7.7-71.6,7c-4.1-0.1-6.6-1.6-6.6-6.1C247.2,242.3,247.2,236.3,248,230.3z"/>
	<path class="st1" d="M248,230.3c0,6,0,12,0,18c-0.3,0-0.7,0-1,0c0-6,0-12,0-18C247.3,230.3,247.7,230.3,248,230.3z"/>
	<path class="st2" d="M335.4,256.9c-2,0.1-3.3-0.2-3.5-1.9c-0.2-1.5,0.4-2.7,2-2.7c9.5,0.1,12.9-6.6,15.7-13.9
		c0.6-1.6,0.6-4.2,3.2-3.2c2.6,1,1,3.1,0.4,4.6c-3.2,7.8-6.9,15.2-16.5,16.7C336.1,256.7,335.5,256.9,335.4,256.9z"/>
	<path class="st3" d="M347.5,261.8c-1.2-0.1-2.8-0.3-3.2-2.1c-0.4-2,1.1-2.8,2.6-2.9c6.5-0.6,10.3-3.9,11.4-10.4
		c0.2-1.3,1-2.5,2.8-2.2c2.2,0.4,1.8,2,1.7,3.5C362.4,254.6,354.7,261.8,347.5,261.8z"/>
	<path class="st4" d="M561.1,479.2c-1.6,1.2-1.2,3.1-0.9,4.5c1.1,4.3,0.5,8.4-0.3,12.6c-2.3-0.5-2.1-2.3-2.1-3.9
		c-0.2-14.4-2.5-28.7-3.6-43c-0.2-2.1-0.9-4.3,0.8-6.1c1.4,0.5,0.8,2.2,1.7,3.3c0.2-1,0.4-1.8,0.5-2.6
		C560,455.6,559.6,467.5,561.1,479.2z"/>
	<path class="st5" d="M515.2,451.5c-0.7-10.2-0.4-20.3,0-30.4c0.6,0,1.3,0,1.9,0c0,2.4,0,4.7,0,7.1c-2.3,1.1-1.1,3.1-1.2,4.7
		C515.4,439.1,516.1,445.3,515.2,451.5z"/>
	<path class="st4" d="M563.1,495.3c-2.1-3.2-0.9-6.8-0.9-10.2C563.4,488.4,562.7,491.9,563.1,495.3z"/>
	<path class="st6" d="M452.8,222.9c0.5,4.6,0.1,9-1.7,13.3c-4-3.8-2.1-8.5-2.1-12.9c0-17,0.3-34-0.1-50.9
		c-0.5-17.1,2.7-33.7,4.5-50.5c1.3-12.2,3-24.4,4.4-36.5c0.2-1.6,1.1-4-2.6-2.5c-2.7,1.1-2.4-1.4-1.5-2.9c2.1-3.7,5.5-6.1,8.8-8.6
		c9.2-6.9,20.2-9.1,31.3-9.9c6.1-0.4,12.2-1.5,18.4-0.9c10.3,1,18.6,5.9,25.3,13.4c6.8,7.7,11.7,16.8,15.6,26.3
		c0.5,1.2,1.3,2.5-0.9,2.9c-1.8-3.1-2.4-6.8-5.7-10.2c0.6,14,0.7,27.2-0.3,40.3c-3.2-0.6-2.4-3.2-2.4-5.1
		c-0.2-7.6-0.1-15.3-0.1-22.9c0-2,0.1-4-0.8-5.8c-1.3-3.1-2.2-6.4-2.5-9.6c-1-12.3-9.9-17.7-19.4-22.5c-2.8-1.4-6.1-1.9-9.2-2.1
		c-14.5-1-28.6,0.2-41.7,7.2c-6,3.2-8.8,7.5-8.8,14.8c0.1,12.8-2.4,25.5-4.3,38.1c-3.5,23.1-5.1,46.3-4.6,69.6
		c0.2,10.3,0.5,20.5-0.9,30.7C451.6,224.6,451.3,223.3,452.8,222.9z"/>
	<path class="st7" d="M571.2,197.3c-0.1-15.5-2.1-30.8-5.2-46c0.7-1.2-0.5-3,1-4c2.9,8.6,4.2,17.5,5.1,26.5c1,4.5-0.2,9.1,0.7,13.5
		c0.5,1.5,0.9,3,0.2,4.5c1.1,5.8-0.3,11.7,0.8,17.5c0.7,7.5,0.8,15.1,3,22.4c-4-1.5-4.8-5-4.9-22.8
		C570.8,205,572.2,201.1,571.2,197.3z"/>
	<path class="st3" d="M288.3,196.6c-2.2-1.1-2.8,0-3,2.1c-0.1,1.4-0.8,3-2.7,3c-1.8,0-3.1-0.6-3.9-2.4c-0.6-1.5-1.4-3-2.1-4.4
		c-0.7-1.2-1-2.4,0.1-3.6c1.1-1.2,2.5-1.3,3.6-0.5c2.7,2.2,3.5,0.2,4.8-1.7c1-1.6,2.3-3.8,4.6-2c2.1,1.6,4.1,3.4,3.4,6.6
		C292.4,196.2,290.8,197.1,288.3,196.6z"/>
	<path class="st3" d="M276.7,182.7c-0.2,2.7-0.9,5.6-5.2,5.6c-3.3,0-6.5-4.2-6.5-8.6c0-3.1,3.7-7.2,6.4-7.1
		C273.9,172.8,276.6,177.7,276.7,182.7z"/>
	<path class="st8" d="M567,147.3c-0.2,1.4,0.5,3-1,4c-4.6-16-9.3-32-13.9-48c1.1-0.7,0.7-1.9,0.9-2.9c5.3,11.9,8.1,24.5,11.7,36.9
		C565.7,140.5,566.2,143.9,567,147.3z"/>
	<path class="st9" d="M543.8,98.3c1.9,1.3,1.2,3.3,1.2,5c0.1,8.3,0,16.6,0.1,24.8c0,1.7-0.7,3.7,1,5.1c-0.9,10.4-4.9,19.1-14.1,24.8
		c0.8-1.3,0.2-1.8-1.1-1.8c-0.1-2.3,1.8-3.5,3-4.9c6.2-7.2,8.8-15.5,8.6-24.8c-0.1-7.3-0.1-14.6,0-21.9
		C542.6,102.4,542.2,100.2,543.8,98.3z"/>
	<path class="st10" d="M292.9,167.4c0,2.1-0.7,4.6-3.9,4.7c-4.3,0.1-5.1-3.5-5.4-6.5c-0.2-2.1-0.4-5.4,3-6
		C289.2,159.1,292.8,163.5,292.9,167.4z"/>
	<path class="st3" d="M270,201.9c-2.3,1.8-5.1,2.7-6.7-0.3c-1.4-2.9-1.9-6.6,0.7-9.2c1.5-1.5,3.7-1,5.1,1c1.1,1.7,2.1,3.4,2,5.5
		C271.9,200.3,271.7,201.4,270,201.9z"/>
	<path class="st11" d="M270,201.9c0.4-1,0.8-2,1.2-3.1c2.1,0.3,4.5-0.3,5.7,2.6c1,2.5,0.5,4.1-1.4,5.7c-0.9,0.8,0,1,0.5,1.2
		c-0.5,0.7-1.2,1-2,0.8c-2.4-1.7-5.5-3.2-2.6-7C270.9,202.2,270.5,202.1,270,201.9z"/>
	<path class="st12" d="M254.3,195.3c0.1-0.9,0.2-2.6,2.2-2.7c1.8-0.1,2.4,1.3,2.5,3c0.1,1.8,0.5,3.6,0.8,5.3
		c0.3,1.8-0.5,2.9-2.3,3.1c-1.7,0.2-2.3-0.8-2.5-2.4C254.9,199.8,254.6,197.8,254.3,195.3z"/>
	<path class="st13" d="M573.8,209.3c-1.8-5.8-0.5-11.7-0.8-17.5C574,197.6,573.8,203.4,573.8,209.3z"/>
	<path class="st13" d="M572.8,187.3c-1.8-4.4-0.5-9-0.7-13.5C573.5,178.2,572.9,182.7,572.8,187.3z"/>
	<path class="st13" d="M571.2,197.3c1.7,3.7,0.5,7.7,0.8,11.5C570.7,205.1,571,201.2,571.2,197.3z"/>
	<path class="st14" d="M555,443.3c1.4,13,2.8,25.9,4.1,38.9c0.5,4.7,0.6,9.5,0.9,14.2c0,0,0,0,0,0c1.6,7,2.1,14.1,3,21.2
		c0.6,10.8,1.1,21.6,1.7,32.4c0.2,3.4-0.8,4.8-4.5,4.1c-7.7-1.5-15.6,0.3-23.4-1.4c-4.5-1-6.8-2.6-6.9-7.8
		c-0.1-15.1,0.4-30.3-2.5-45.3c-0.8-4.4-0.2-8.9,0.1-13.4c0.8-11.7,0.3-23.2-2.5-34.7c-4.1-16.8-7-33.9-7.9-51.2
		c-0.1-1.2-0.2-2.3-0.5-3.5c-0.4-1.3-1.2-2.5-2.9-2.3c-1.5,0.2-2.5,1.1-2.6,2.6c-0.1,2.2-0.1,4.3,0,6.5c1.7,35.5,1.6,70.9,1.1,106.4
		c-0.2,10.3,0.7,20.7-2,30.8c-1.2,4.5-2.7,8.9-4.2,13.3c-1.1,3.2-3.4,4.7-6.9,4.4c-7.5-0.6-14.6-3.1-22-4.1
		c-1.6-0.2-1.3-1.2-1.1-2.1c5.5-32.6,0.9-65.4,2-98.1c0.8-25,0.1-50,0.5-75c0.2-15.5-0.1-31,0.8-46.5c0.4-7.2,0.4-7.3,7.3-7.4
		c14.8-0.1,29.7,0,44.5-0.1c3.6,0,4.9,0.7,4.4,4.8c-1.2,9.1-0.6,18.3,2,27.2c4.3,14.6,4.5,29.9,8.7,44.5
		C550.2,415.4,552.6,429.3,555,443.3z"/>
	<path class="st14" d="M356,204.2c6.2-3.9,13.7-4.8,19.9-9c2.8-1.9,7.9-1.2,11.3,1.5c2,1.6,0.8,11.1-1.3,13.8c-4.5,6-4.1,6-0.3,12.4
		c7.9,13.2,17.6,25.1,25.7,38.1c3.5,5.6,7.7,10.5,10.3,16.8c3.9,9.3,17.7,9.4,23.3,1.2c4.9-7.2,6-15.4,7.7-23.5
		c2.6-12.4,5.9-24.5,7.4-37.2c1.5-12.5,9.2-21.9,19.6-28.8c4-2.6,9-2,13.7-2c9.7,0,9.7,0,9.7-9.6c0.1-7.2,0.4-7.7,7.2-8.8
		c0,4.8,0,9.7,0,14.5c0,4.4,1.9,7.5,6.5,8c6.4,0.7,11.1,3.7,14.2,9.5c1.1,2,2.7,3.8,4.2,5.6c2.1,2.4,5.1,4.5,1.4,8
		c-0.8,0.8-0.3,2.9-0.3,4.4c0,22.5,0,45,0.1,67.5c0,3-0.5,5-3.5,6.8c-6.8,3.9-9.7,18.6-1.3,23.7c0.6,0.4,1.1,1,2.2,2
		c-17.2,0-33.6,0-50,0c-2.8,0-3.3-1.7-3.3-3.9c0.4-17.1-1.1-34.3,0.9-51.4c1.5-12.5,2.9-25.1,2.9-37.8c0-1.8,0-3.7-0.4-5.5
		c-0.6-2.1-1.8-4-4.3-4.3c-2.3-0.2-3.9,1.1-4.8,2.9c-6.3,11.9-12.3,23.8-16.3,36.8c-3.3,10.8-5.1,22.5-12.4,31.8
		c-6.3,8.1-11.6,9-20.9,4.7c-15.4-7.1-26.5-17.8-34.1-33.4c-5.6-11.6-9.9-23.5-13.5-35.7c-1.2-4-3.7-7-6.2-10.1
		c-1.9-2.4-2.6-4.5,1.3-6c1.9-0.8,3.6-2.4,5.1-3.9c1.3-1.2,3.2-2.6,1.5-4.6c-1.6-1.9-3.2-0.4-4.7,0.7c-4.5,3.5-9.5,6-15.5,5.9
		C357.8,205.6,356.2,206.7,356,204.2z"/>
	<path class="st14" d="M543.8,98.3c0.1,9.6,0,19.3,0.2,28.9c0.3,11.8-4.5,21.2-13.1,29c-9.6,3.4-19.1,7.4-28.9,10.2
		c-14.1,4-25.9-4.1-29-19.2c-3.5-3.6-2.6-8.6-3.8-12.9c-0.6-2.3-0.7-4.9-0.6-7.4c0.2-9-0.3-18.1,0.2-27.1c1-3.6,4.4-4.9,7-6.6
		c7.8-5.2,16.5-8.9,24.8-13.3c10.5,4.8,19.9,11.3,30.1,17.6c0.2-2.6-1.2-3.5-2.5-4.4c-7.2-5-15.3-8.6-22.7-13.2
		c-1.5-0.9-3.1-1-4.8-0.5c-8.5,2.1-15.8,6.6-23.3,11c-2.8,1.6-5.1,3.9-8.9,0.4c-0.4,8.8-0.2,16.6-0.2,24.4
		c0.2,5.3-0.4,10.6,0.4,15.9c-0.2,5.9,2.9,11.4,2.3,17.3c2.6,8.8,4,18.4,14.5,22c3.2,1.1,6.5,1.3,9.8,1.2c2.7,0,3.2,0.8,3,3.6
		c-0.4,4.9-1.9,7.6-7.5,6.5c-14.4-2.7-29.9,12.5-34.2,26c-1.6,5-4.5,9.7-3.9,15.3c-0.4,2-0.9,4.1-1.3,6.1
		c-0.5-26.2-1.5-52.3,0.7-78.3c1.5-18.7,4.8-37.3,7.2-55.9c0.4-3.3,1.2-6.7,0.6-9.9c-1-5.6,2.1-8.6,5.9-11.5
		c5.5-4.3,11.9-6.6,18.6-8c9.9-2,19.8-2.5,29.8-1.3c12.4,1.4,20.4,9.3,26.6,19.1c1.7,2.6,0.4,7,1.7,10.4
		C543.2,95.1,543.4,96.7,543.8,98.3z"/>
	<path class="st14" d="M340,215.4c0,6.3-2.2,12.1-4.1,17.9c-1.2,3.7-3.9,5.7-7.7,7.1c-22.8,8.5-46.4,9.7-70.3,8.8
		c-1.9-0.1-3.9,0.1-4.2-2.4c-0.7-5.9-1.7-11.9,1.3-17.5c0.8-1.4,1.4-2.7,3.4-1.8c7.3,3.3,15,2.3,22.6,2.2
		c11.3-0.2,22.7,0.1,33.6-3.1c8.1-2.4,16.1-5.2,23.2-10.2c1.2-0.6-0.1-3,1.9-2.9C340.6,213.5,340.5,214.6,340,215.4z"/>
	<path class="st15" d="M550,222.2c9.1,10.6,22.4,15.9,32,25.8c7.4,7.6,9.6,21.4,6.3,31.4c-3.9,12-13.5,17.5-23.5,23
		c-6,3.4-12.8,5.4-17.9,10.6c-2.4,2.5-5.7,2.2-8.9,0.2c-3.3-2-5.8-4.1-5-8.5c0.6-3.5,1.8-5.9,5.7-7c2.8-0.8,5-1.4,7.3,0.9
		c1.8,1.7,4,1.4,6,0.1c7.7-4.9,15.9-8.9,22.2-15.9c4.9-5.5,6.3-10.6,3-17.2c-3.9-7.8-9.1-14.7-14.2-21.7
		c-4.9-6.7-9.6-13.7-14.3-20.6C549.2,223,549.6,222.6,550,222.2z"/>
	<path class="st14" d="M542.9,225.2c8.5,11,16.2,22.4,24.2,33.5c10,14.1,8,16.2-5.5,27.6c-3.1,2.6-7.2,4.1-10.8,6.1
		c-2.5,1.3-8.8-2-8.8-4.7c0-20.7,0-41.3,0.1-62C542.1,225.7,542.4,225.6,542.9,225.2z"/>
	<path class="st15" d="M483,584.3c-5.4-0.3-12.2-0.5-18.9-2.2c-4.8-1.3-5.2-4.3-4.2-8.4c1-4.1,2.8-6.7,7.6-5.5
		c3.2,0.8,6.4,1.5,9.7,2.2c4.3,0.8,7.3-0.6,7.7-5.3c0.3-3.4,2-3.6,4.7-2.8c2.5,0.7,4.9,2.1,7.7,2c1.2,0,1.7,0.8,1.8,2
		c0,1,0.1,2,0.1,3C499.4,583.2,498.2,584.5,483,584.3z"/>
	<path class="st15" d="M551.3,559.3c8.8,0.4,9.5,1.2,7.6,10.1c-0.4,1.8-1.1,3.5-1.4,5.3c-1.6,8.8-3.1,10-11.7,7.5
		c-5.6-1.6-10.9-4-16.3-6c-3.6-1.3-2-4.6-2.4-6.9c-0.5-2.3,2.1-1.9,3.6-2.2c3.1-0.5,6.2-1,9.4-1.5c1.5-0.3,3.4-0.6,3.5-2.3
		C544.2,558.1,547.9,559.1,551.3,559.3z"/>
	<path class="st16" d="M340,215.4c-0.2-0.6-1.2-0.2-2.1,0.9c-0.1-4.3-1.8-5.2-5.7-3c-3.9,2.2-8,4.1-12.1,5.9
		c-2.7,1.2-5.3,3.8-7.8-1.2c-1.4-2.9-5.1-1-7.7,0c-2,0.8-4,2.4-5.8-0.5c-0.3-0.4-1.3-0.7-1.9-0.5c-5.3,1.2-10.1,1-12-5.3
		c18.7-6.8,38.2-6.1,57.4,0C341.9,212.3,341,213.9,340,215.4z"/>
	<path class="st17" d="M466.9,114.3c-0.3-7.3-0.8-14.6,0-21.9c0.2-1.7,0.3-4.2,2.6-4.2c2.4,0,0.6,2.8,1.8,4.3
		c9.4-5.7,18.5-12.1,29.7-14.1c0.6,0.8,0.6,1.6-0.2,2.3c-4.2,2.3-8.2,4.9-12.5,6.8c-6.6,2.8-12.1,7.3-18.2,10.8
		c-1.1,9.6-0.9,19.3-0.1,29c-0.4,6.9,1.8,13.4,3,20c-0.6,0.3-1.3,0.7-1.9,1c-1.6-5.5-3.4-11-3.1-16.9
		C466.6,125.7,468.5,119.9,466.9,114.3z"/>
	<path class="st18" d="M387.4,188.7c5-3.8,10.7-5.2,16.5-6.6c1-0.2,2.1-0.5,2.6,0.6c0.5,1.1,0,2.3-0.7,3.2
		C402.7,190.3,392.5,192,387.4,188.7z"/>
	<path class="st19" d="M268.1,225c-3,0.2-5.4-0.3-8-1.6c1.1-2,2.7-3.6,4.5-3.4C266.8,220.2,267.1,222.7,268.1,225z"/>
	<path class="st4" d="M562.9,517.5c-1.7-7-2-14.1-3-21.2C562.6,503.1,563,510.3,562.9,517.5z"/>
	<path class="st20" d="M308.1,221.9c-1.6,3.7-5,2.3-7.5,3.2c-0.6,0.2-0.9-0.8-0.8-1.5c0.1-0.6,0.3-1.8,0.8-1.3
		C303.1,224.7,305.3,221.1,308.1,221.9z"/>
	<path class="st21" d="M275.2,219.2c-2.4-4.8-2.4-4.8,4-5.9c-1.3,2.1-3.3,3.5-3.4,5.9C275.6,219.2,275.4,219.2,275.2,219.2z"/>
	<path class="st22" d="M290.6,225.5c-1-0.1-2.6,0.4-2.4-0.9c0.4-2.3,2.8-1.6,4.4-2.3c0.9-0.4,1.6,0.2,1.6,1.2
		C294.1,226.4,291.8,225,290.6,225.5z"/>
	<path class="st23" d="M356,204.2c0.6,1.6,2.1,0.6,3.1,1.2c-2.5,1.5-5.3,1.1-8.7,2.1C352.4,205.5,353.9,204.5,356,204.2z"/>
	<path class="st24" d="M275.2,219.2c0.2-0.1,0.4-0.1,0.6,0c0.1,0.5,0.3,1.1,0.1,1.5c-0.6,1.7,1.8,2.8,0.9,4.4
		c-0.1,0.2-1.1,0.3-1.4,0.1c-1.8-1.5,0.1-3.3-0.4-5C274.9,219.9,275.1,219.5,275.2,219.2z"/>
	<path class="st25" d="M478.3,120.4c0.7-3.8-0.4-9.1,4.5-12.5c0.8-0.6,1.5-1.2,2.5-1.3c4.5-0.7,12.1,4.9,13.2,9.4
		c0.4,1.8,0.1,3.5-1.4,3.7c-3.5,0.4-3.6,3.4-4.9,5.5c-1.9,3.2-4.2,6.4-8.5,5.5C478.9,129.5,478,125.6,478.3,120.4z"/>
	<path class="st26" d="M522,117.2c2,1.3-1.2,3.9,1.3,5.2c1.1,0.5,2.4,1.4,3.2,0.8c2.5-2,1.6-5.2,2.1-7.8c0.4-1.8-0.2-3.3-2.4-3.7
		c-0.8-0.1-1.6-0.2-2.5-0.4c-2.4-0.3-5.7,0-5.2-3.7c0.4-3.1,3.4-2.5,5.7-2.3c8.6,0.6,11.8,4.6,10.4,13.2c-0.1,0.7-0.3,1.3-0.4,1.9
		c-1.5,7-3.4,9.1-8,8.9c-5.1-0.2-10.1-4.7-11-9.9c-0.1-0.5-0.2-1-0.1-1.5c0.2-2.1-1.7-5.3,1.4-6c3-0.7,2.8,2.5,3.5,4.4
		C520.4,117.2,521.3,117.1,522,117.2L522,117.2z"/>
	<path class="st10" d="M500.9,80.7c0.1-0.8,0.1-1.6,0.2-2.3c1.1-1.6,2.3-0.8,3.5-0.2c8.4,4.7,16.7,9.4,25,14.2
		c1,0.6,1.9,1.4,2.6,2.3c0.9,1.1,1.4,2.4,0.2,3.6c-1.1,1.2-2.5,1.2-3.6,0.2C520.6,90.7,509.8,87.1,500.9,80.7z"/>
	<path class="st3" d="M509.5,147.6c-1.2-0.1-2.4,0-3.4-0.3c-1.7-0.5-3.8-1.2-3.4-3.5c0.4-2.5,2.3-2.1,4.3-1.7
		c3.4,0.8,6.5-0.1,9.4-2.1c1.7-1.2,3.7-3,5.5-0.3c1.8,2.9-0.8,4.2-2.7,5.3C516.1,146.7,513,147.7,509.5,147.6z"/>
	<path class="st17" d="M502.4,124.1c0.1-1,0.2-1.8,0.2-2.7c0-1.5,0.6-2.6,2.2-2.7c1.6-0.1,2.5,0.9,2.5,2.4c-0.1,2.7,0.9,4.8,2.6,6.7
		c1.2,1.4,0.8,2.8-0.4,4c-1.2,1.1-2.4,0.6-3.6-0.2C503.2,129.9,502.5,127.1,502.4,124.1z"/>
	<path class="st27" d="M470,127.3c-2.3-6-0.8-12.3-0.9-18.5c-0.1-3.5-1.2-7.2,1-10.5C470.1,108,470,117.6,470,127.3z"/>
	<path class="st27" d="M466.9,114.3c1.8,5.6,0.9,11.4,1,17.1C466.6,125.7,466.3,120,466.9,114.3z"/>
	<path class="st7" d="M522.1,117.3c-0.4-1.6-1.2-3.3,1.3-3.8c1.1-0.2,2,0.7,2,1.7C525.4,117.5,523.8,117.7,522.1,117.3
		C522,117.2,522.1,117.3,522.1,117.3z"/>
	<path class="st28" d="M485.1,124.3c-1.4-1.4-1.8-3.1-1.2-3.5c3-2.4,3.1-4.6,0.4-7.3c-0.7-0.7,0-2.2,1.3-1.9
		c1.7,0.4,3.8,0.6,3.7,3.2C489.1,118.3,487.5,121.2,485.1,124.3z"/>
</g>
</svg>
