<?xml version="1.0" encoding="UTF-8"?>
<!DOCTYPE svg PUBLIC "-//W3C//DTD SVG 1.1//EN" "http://www.w3.org/Graphics/SVG/1.1/DTD/svg11.dtd">
<svg xmlns="http://www.w3.org/2000/svg" version="1.1" width="89px" height="88px" style="shape-rendering:geometricPrecision; text-rendering:geometricPrecision; image-rendering:optimizeQuality; fill-rule:evenodd; clip-rule:evenodd" xmlns:xlink="http://www.w3.org/1999/xlink">
<g><path style="opacity:1" fill="#fefffe" d="M 13.5,11.5 C 24.0796,20.5758 34.2463,30.2424 44,40.5C 53.5,31 63,21.5 72.5,12C 75.4697,11.9783 76.6363,13.4783 76,16.5C 66.6523,25.6808 57.4856,35.0142 48.5,44.5C 57.4856,53.9858 66.6523,63.3192 76,72.5C 76.6363,75.5217 75.4697,77.0217 72.5,77C 63,67.5 53.5,58 44,48.5C 34.5,58 25,67.5 15.5,77C 12.5303,77.0217 11.3637,75.5217 12,72.5C 21.3477,63.3192 30.5144,53.9858 39.5,44.5C 30.5144,35.0142 21.3477,25.6808 12,16.5C 11.3872,14.5048 11.8872,12.8381 13.5,11.5 Z"/></g>
</svg>
