<svg id="svg" xmlns="http://www.w3.org/2000/svg" xmlns:xlink="http://www.w3.org/1999/xlink" width="400" height="443.6194895591647" viewBox="0, 0, 400,443.6194895591647" version="1.1"><g id="svgg"><path id="path0" d="M150.623 41.995 C 125.202 64.582,103.004 84.220,101.295 85.635 L 98.186 88.207 65.224 88.143 C 35.431 88.086,32.094 88.231,30.516 89.659 C 28.877 91.142,28.770 93.040,28.770 120.725 L 28.770 150.212 16.009 161.559 C 8.991 167.799,2.517 173.723,1.624 174.723 C 0.094 176.435,0.000 184.118,0.000 308.156 L 0.000 439.772 2.445 441.696 L 4.891 443.619 200.167 443.619 L 395.444 443.619 397.722 441.341 L 400.000 439.063 400.000 308.166 L 400.000 177.268 396.819 173.785 C 395.069 171.869,388.611 165.916,382.467 160.557 L 371.296 150.812 371.263 121.449 C 371.233 94.895,371.074 91.893,369.606 90.082 C 367.994 88.095,367.714 88.080,334.539 88.142 L 301.097 88.204 251.993 44.566 C 208.574 5.980,202.539 0.928,199.865 0.928 C 197.195 0.928,191.448 5.720,150.623 41.995 M241.977 53.184 C 263.022 71.867,279.915 87.354,279.516 87.601 C 278.405 88.288,123.187 88.072,121.415 87.381 C 120.244 86.925,129.738 77.999,159.845 51.253 C 199.648 15.893,199.840 15.739,201.771 17.473 C 202.839 18.432,220.931 34.502,241.977 53.184 M357.938 151.276 L 358.103 201.856 301.789 251.738 L 245.476 301.620 199.837 301.622 L 154.199 301.624 98.018 251.740 L 41.838 201.856 41.801 151.041 L 41.763 100.227 199.768 100.461 L 357.773 100.696 357.938 151.276 M84.617 145.071 C 81.973 147.885,82.062 150.824,84.877 153.638 L 87.155 155.916 144.148 155.916 C 208.447 155.916,206.032 156.185,206.032 149.032 C 206.032 142.619,209.095 142.923,144.636 142.923 L 86.634 142.923 84.617 145.071 M28.770 178.600 C 28.770 190.360,28.748 190.377,21.810 184.034 L 16.241 178.943 21.810 173.949 C 29.013 167.488,28.770 167.326,28.770 178.600 M377.926 173.890 L 383.231 178.787 378.854 182.950 C 370.706 190.700,371.230 190.955,371.230 179.232 C 371.230 167.309,370.998 167.494,377.926 173.890 M86.604 189.334 C 82.506 190.984,81.360 196.441,84.458 199.540 C 86.302 201.383,87.322 201.397,200.136 201.164 L 313.953 200.928 315.814 198.435 C 318.098 195.376,316.826 191.137,313.119 189.448 C 310.300 188.163,89.784 188.052,86.604 189.334 M79.690 252.838 C 113.447 282.847,141.062 307.666,141.056 307.992 C 141.042 308.667,15.106 420.716,13.827 421.191 C 13.337 421.373,12.993 374.584,12.993 307.651 L 12.993 193.803 15.653 196.040 C 17.115 197.271,45.932 222.830,79.690 252.838 M387.007 307.734 C 387.007 382.789,386.693 421.395,386.083 421.191 C 384.971 420.818,257.837 307.953,258.209 307.668 C 258.352 307.558,287.216 281.930,322.351 250.718 C 357.486 219.505,386.407 193.968,386.620 193.968 C 386.833 193.968,387.007 245.162,387.007 307.734 M135.661 236.951 C 132.893 239.897,133.066 243.495,136.088 245.872 C 139.900 248.871,251.828 248.901,255.045 245.904 C 257.608 243.516,257.691 239.129,255.220 236.659 C 253.404 234.842,252.127 234.803,195.521 234.803 L 137.679 234.803 135.661 236.951 M310.218 371.739 C 345.561 403.156,374.617 429.258,374.787 429.744 C 374.982 430.300,310.091 430.626,199.402 430.626 L 23.708 430.626 26.007 428.358 C 27.272 427.110,56.497 401.020,90.951 370.379 L 153.596 314.669 199.777 314.643 L 245.958 314.617 310.218 371.739 " stroke="none" fill="#000000" fill-rule="evenodd"></path></g></svg>