<svg id="svg" xmlns="http://www.w3.org/2000/svg" xmlns:xlink="http://www.w3.org/1999/xlink" width="400" height="400" viewBox="0, 0, 400,400" version="1.1"><g id="svgg"><path id="path0" d="M89.229 2.117 C 46.388 9.444,10.530 44.491,1.650 87.717 C -0.838 99.825,-0.838 302.259,1.650 314.367 C 9.952 354.777,41.315 387.836,80.973 397.979 C 93.302 401.132,306.752 401.118,319.087 397.964 C 356.052 388.510,384.534 360.662,396.609 322.171 L 399.479 313.021 399.479 201.042 L 399.479 89.063 396.609 79.912 C 384.736 42.063,358.959 16.288,321.129 4.437 L 311.979 1.570 203.125 1.412 C 143.255 1.326,92.002 1.643,89.229 2.117 M312.389 20.656 C 346.842 29.722,371.678 54.728,380.457 89.191 L 382.813 98.438 382.813 201.042 L 382.813 303.646 380.457 312.893 C 369.265 356.827,336.326 381.957,287.240 384.014 L 270.833 384.701 270.833 318.913 L 270.833 253.125 292.777 253.125 C 322.635 253.125,319.291 256.746,325.529 217.658 C 331.006 183.336,331.024 183.013,327.652 179.640 L 325.095 177.083 298.485 177.083 L 271.875 177.083 271.875 157.258 C 271.875 127.140,270.748 128.125,305.196 128.125 C 326.040 128.125,326.148 128.113,328.693 125.568 L 331.250 123.011 331.250 93.196 L 331.250 63.381 328.205 60.337 L 325.160 57.292 286.209 57.292 C 262.779 57.292,244.795 57.741,241.077 58.419 C 226.633 61.052,207.713 75.115,201.801 87.612 C 195.351 101.246,195.559 99.636,195.067 139.844 L 194.611 177.083 171.737 177.083 L 148.864 177.083 146.307 179.640 L 143.750 182.197 143.750 215.625 L 143.750 249.053 146.307 251.610 L 148.864 254.167 171.828 254.167 L 194.792 254.167 194.792 319.372 L 194.792 384.578 145.573 384.100 C 99.437 383.652,95.807 383.481,87.611 381.374 C 53.390 372.578,28.323 347.359,19.543 312.893 L 17.188 303.646 17.188 201.042 L 17.188 98.438 19.543 89.191 C 29.484 50.170,60.766 22.780,100.000 18.745 C 120.908 16.595,303.189 18.235,312.389 20.656 M314.583 92.708 L 314.583 111.458 296.022 111.458 C 257.878 111.458,255.234 114.583,255.219 159.683 L 255.208 188.636 257.765 191.193 L 260.322 193.750 285.890 193.750 C 305.655 193.750,311.456 194.046,311.449 195.052 C 311.444 195.768,310.048 205.026,308.347 215.625 C 306.646 226.224,305.244 235.247,305.231 235.677 C 305.219 236.107,294.875 236.458,282.244 236.458 L 259.280 236.458 256.723 239.015 L 254.167 241.572 254.167 312.973 L 254.167 384.375 232.813 384.375 L 211.458 384.375 211.458 313.600 L 211.458 242.825 208.961 239.921 L 206.463 237.017 183.440 237.355 L 160.417 237.693 160.417 215.721 L 160.417 193.750 183.218 193.750 C 204.108 193.750,206.225 193.583,208.478 191.760 L 210.938 189.771 211.526 148.792 C 212.169 103.945,212.885 98.679,219.367 91.136 C 220.747 89.531,221.875 87.871,221.875 87.447 C 221.875 87.022,224.219 85.172,227.083 83.333 C 229.948 81.495,232.292 79.621,232.292 79.170 C 232.292 75.593,245.800 74.177,280.990 74.065 L 314.583 73.958 314.583 92.708 " stroke="none" fill="#000000" fill-rule="evenodd"></path></g></svg>