<svg id="svg" xmlns="http://www.w3.org/2000/svg" xmlns:xlink="http://www.w3.org/1999/xlink" width="400" height="400" viewBox="0, 0, 400,400"><g id="svgg"><path id="path0" d="M89.229 1.075 C 46.388 8.402,10.530 43.449,1.650 86.675 C -0.838 98.783,-0.838 301.217,1.650 313.325 C 10.341 355.629,43.840 389.293,85.938 398.028 C 100.384 401.025,299.616 401.025,314.063 398.028 C 353.490 389.847,383.955 361.467,396.609 321.129 L 399.479 311.979 399.479 200.000 L 399.479 88.021 396.609 78.871 C 384.736 41.022,358.959 15.247,321.129 3.395 L 311.979 0.528 203.125 0.371 C 143.255 0.284,92.002 0.601,89.229 1.075 M312.389 19.614 C 346.842 28.680,371.678 53.686,380.457 88.149 L 382.813 97.396 382.813 200.000 L 382.813 302.604 380.457 311.851 C 371.616 346.555,346.555 371.616,311.851 380.457 L 302.604 382.813 200.000 382.813 L 97.396 382.813 88.149 380.457 C 53.458 371.619,28.381 346.542,19.543 311.851 L 17.188 302.604 17.188 200.000 L 17.188 97.396 19.543 88.149 C 29.484 49.128,60.766 21.738,100.000 17.704 C 120.908 15.554,303.189 17.193,312.389 19.614 M299.209 77.078 C 288.932 83.344,288.932 99.989,299.209 106.256 C 310.677 113.247,324.992 105.147,324.992 91.667 C 324.992 78.186,310.677 70.086,299.209 77.078 M178.646 110.277 C 115.344 126.869,87.758 198.549,124.023 252.210 C 157.345 301.519,231.752 305.394,270.142 259.821 C 313.315 208.571,288.775 128.531,224.479 110.885 C 214.648 108.187,187.971 107.833,178.646 110.277 M214.963 127.167 C 272.138 138.309,293.674 210.664,252.169 252.169 C 216.007 288.330,156.160 278.465,133.400 232.591 C 106.290 177.950,154.670 115.417,214.963 127.167 " stroke="none" fill="#000000" fill-rule="evenodd"></path></g></svg>