<?xml version="1.0" encoding="UTF-8"?>
<!DOCTYPE svg PUBLIC "-//W3C//DTD SVG 1.1//EN" "http://www.w3.org/Graphics/SVG/1.1/DTD/svg11.dtd">
<svg xmlns="http://www.w3.org/2000/svg" version="1.1" width="89px" height="88px" style="shape-rendering:geometricPrecision; text-rendering:geometricPrecision; image-rendering:optimizeQuality; fill-rule:evenodd; clip-rule:evenodd" xmlns:xlink="http://www.w3.org/1999/xlink">
<g><path style="opacity:1" fill="#000000" d="M 88.5,14.5 C 88.5,15.5 88.5,16.5 88.5,17.5C 58.8333,18.8333 29.1667,18.8333 -0.5,17.5C -0.5,16.5 -0.5,15.5 -0.5,14.5C 29.1667,13.1667 58.8333,13.1667 88.5,14.5 Z"/></g>
<g><path style="opacity:1" fill="#000000" d="M 88.5,42.5 C 88.5,43.5 88.5,44.5 88.5,45.5C 58.8333,46.8333 29.1667,46.8333 -0.5,45.5C -0.5,44.5 -0.5,43.5 -0.5,42.5C 29.1667,41.1667 58.8333,41.1667 88.5,42.5 Z"/></g>
<g><path style="opacity:1" fill="#000000" d="M 88.5,70.5 C 88.5,71.5 88.5,72.5 88.5,73.5C 58.8333,74.8333 29.1667,74.8333 -0.5,73.5C -0.5,72.5 -0.5,71.5 -0.5,70.5C 29.1667,69.1667 58.8333,69.1667 88.5,70.5 Z"/></g>
</svg>
