<svg id="svg" xmlns="http://www.w3.org/2000/svg" xmlns:xlink="http://www.w3.org/1999/xlink" width="400" height="400" viewBox="0, 0, 400,400" version="1.1"><g id="svgg"><path id="path0" d="M54.688 7.353 C -12.400 38.660,-18.681 152.763,42.363 231.250 C 72.233 269.655,173.583 362.303,204.688 379.637 C 273.365 417.911,358.033 402.189,389.539 345.313 C 409.464 309.344,404.350 300.748,347.827 275.187 C 289.871 248.979,283.345 248.854,256.792 273.438 C 228.974 299.192,212.783 294.133,162.215 243.885 C 106.865 188.885,101.393 174.253,126.119 147.357 C 149.427 122.004,149.944 116.756,134.208 65.275 C 113.493 -2.495,98.770 -13.219,54.688 7.353 M99.068 21.765 C 105.642 29.442,127.982 98.236,128.064 111.055 C 128.111 118.350,124.516 124.103,112.534 135.904 C 80.197 167.755,85.006 187.886,138.823 245.946 C 198.336 310.152,230.762 321.113,265.825 288.878 C 288.816 267.743,289.223 267.747,338.490 289.641 C 385.843 310.685,387.848 313.087,376.093 334.684 C 338.326 404.074,249.372 401.160,165.625 327.790 C 39.774 217.534,6.123 163.380,18.674 91.309 C 27.742 39.237,77.313 -3.644,99.068 21.765 " stroke="none" fill="#000000" fill-rule="evenodd"></path></g></svg>