<svg version="1.2" xmlns="http://www.w3.org/2000/svg" viewBox="0 0 43 39" width="43" height="39">
	<title>radisb-svg</title>
	<style>
		.s0 { opacity: 1;fill: #fefefe } 
	</style>
	<g id="Layer">
		<path id="Layer" fill-rule="evenodd" class="s0" d="m42.8 30q0 1 0 2-0.6 0.9-1.6 0.6-2.4-6.8-9.5-6.5 3 3.7 0.7 8 0.5 1.9-0.1 3.7-0.6 0.9-1.6 0.5-1.2-1.6-1.8-3.5 0.4-3.5 0.6-6.9-0.2 2.5-1.6 4.5 0 2.5 1.3 4.7 0.3 0.9 0.2 1.7-1 0-2 0-2.6-2-2.7-5.4 0.5-3.1 1.5-6.1 0.3-1 0-2-1.4 1.4-3.2 2.3-0.4 1-0.7 1.9 0.5 2.4 1 4.8-0.1 2.7-2.1 1.1-3.2-4.9-1-10.5 2.6-1.4 5.2-2.9-1.6-1.2-3.4-2.2-1.5 2.7-4.4 3.9-3.8 1.2-7.7 1.1-3.4-1.9-6.5-4.3-1-1.7-1.2-3.7 0.5-4.7 0.2-9.5-1-2-2.6-3.4 0-1.7 0-3.4 0.5-0.2 0.4-0.7 0.6 0 1.3 0 0.6 1.3 0 2.6 1.2 1.6 3.4 1.8 4-2.3 8.4-3.9 4.1-0.4 7.7 1.7 1.4 1.1 2.9 2.2 1.7 5 0.6 10.2-0.5 1.3-1.3 2.4-0.4 0.5 0 1 1.7 1.1 3.3 2.4-0.8-3.3 2.2-4.6 3.7-0.4 7.4-0.3 6 4.3-1.3 4.5-2.7-0.7-5.4-0.5 6.1 1.3 11.9 3.3 1.4 2.2-1 3-3.5-2.6-7.9-2.4 0.7 0.8 1.7 1.2 6 0.3 8.7 5.6zm-13.3-2.1q0.1-0.1 0.1-0.3 0 0.2-0.1 0.3zm1.9-5.2q0.4 0.6 1 0.5-0.2-0.8-1-0.5zm-1.3 1.5q0.2 0.8 1 0.7-0.3-0.7-1-0.7z"/>
	</g>
</svg>